<?xml version="1.0" encoding="utf-8"?>
<!-- Generator: Adobe Illustrator 19.0.0, SVG Export Plug-In . SVG Version: 6.00 Build 0)  -->
<svg version="1.1" id="layer" xmlns="http://www.w3.org/2000/svg" xmlns:xlink="http://www.w3.org/1999/xlink" x="0px" y="0px"
	 viewBox="-153 -46 652 652" style="enable-background:new -153 -46 652 652;" xml:space="preserve">
<path d="M-126.2,183v191.6H1.5v-95.8V183H-126.2z M44.1,183L1.5,278.8l42.6,95.8h21.3V183H44.1z M104.1,375.6h36V183h-36V375.6z
	 M180.7,183l-39.4,94.9l49.8,97.8h37.3l-54.9-100.9l44-91.7H180.7z M352.2,183v23.1h-63.7v57.7h58.2v23.1h-58.2v65.8h67v23.1h-103
	V183H352.2z M473.8,183v23.1h-51.1v57.4h47.7v23.1h-47.7v89.1h-36V183H473.8z"/>
</svg>
